<svg xmlns="http://www.w3.org/2000/svg" xmlns:xlink="http://www.w3.org/1999/xlink" width="500" zoomAndPan="magnify" viewBox="0 0 375 374.999991" height="500" preserveAspectRatio="xMidYMid meet" version="1.0"><defs><g/><clipPath id="5ffbe05560"><path d="M 72.132812 120.296875 L 303 120.296875 L 303 254.546875 L 72.132812 254.546875 Z M 72.132812 120.296875 " clip-rule="nonzero"/></clipPath></defs><g clip-path="url(#5ffbe05560)"><path fill="#b8b8b8" d="M 73.546875 170.152344 L 95.117188 148.578125 L 73.546875 127.003906 C 73.207031 126.652344 72.949219 126.253906 72.769531 125.800781 C 72.589844 125.347656 72.5 124.878906 72.503906 124.394531 C 72.507812 123.90625 72.605469 123.4375 72.792969 122.992188 C 72.980469 122.542969 73.246094 122.144531 73.589844 121.800781 C 73.933594 121.457031 74.332031 121.191406 74.78125 121.003906 C 75.226562 120.816406 75.695312 120.71875 76.183594 120.714844 C 76.667969 120.710938 77.136719 120.800781 77.589844 120.980469 C 78.042969 121.160156 78.441406 121.417969 78.792969 121.757812 L 100.367188 143.332031 L 121.9375 121.757812 C 122.289062 121.421875 122.691406 121.167969 123.140625 120.988281 C 123.59375 120.8125 124.058594 120.726562 124.542969 120.734375 C 125.027344 120.738281 125.492188 120.835938 125.941406 121.023438 C 126.386719 121.210938 126.78125 121.476562 127.121094 121.820312 C 127.464844 122.160156 127.730469 122.554688 127.917969 123.003906 C 128.105469 123.449219 128.203125 123.914062 128.210938 124.398438 C 128.214844 124.882812 128.128906 125.351562 127.953125 125.800781 C 127.773438 126.25 127.519531 126.652344 127.183594 127.003906 L 105.613281 148.578125 L 127.183594 170.152344 C 127.363281 170.320312 127.527344 170.507812 127.667969 170.710938 C 127.8125 170.914062 127.933594 171.128906 128.035156 171.355469 C 128.132812 171.582031 128.210938 171.816406 128.261719 172.058594 C 128.316406 172.300781 128.34375 172.546875 128.347656 172.796875 C 128.351562 173.042969 128.328125 173.289062 128.285156 173.53125 C 128.238281 173.777344 128.167969 174.015625 128.074219 174.242188 C 127.980469 174.472656 127.867188 174.691406 127.730469 174.898438 C 127.59375 175.105469 127.4375 175.296875 127.261719 175.472656 C 127.085938 175.648438 126.894531 175.804688 126.6875 175.941406 C 126.480469 176.078125 126.261719 176.191406 126.03125 176.285156 C 125.800781 176.378906 125.566406 176.449219 125.320312 176.496094 C 125.078125 176.539062 124.832031 176.5625 124.582031 176.558594 C 124.335938 176.554688 124.089844 176.527344 123.847656 176.472656 C 123.605469 176.421875 123.371094 176.34375 123.144531 176.246094 C 122.917969 176.144531 122.703125 176.023438 122.5 175.878906 C 122.296875 175.738281 122.109375 175.574219 121.9375 175.394531 L 100.367188 153.824219 L 78.792969 175.394531 C 78.441406 175.730469 78.039062 175.984375 77.589844 176.164062 C 77.140625 176.339844 76.671875 176.425781 76.1875 176.421875 C 75.703125 176.414062 75.238281 176.316406 74.792969 176.128906 C 74.34375 175.941406 73.949219 175.675781 73.609375 175.335938 C 73.265625 174.992188 73 174.597656 72.8125 174.152344 C 72.625 173.703125 72.527344 173.238281 72.519531 172.753906 C 72.515625 172.269531 72.601562 171.804688 72.777344 171.351562 C 72.957031 170.902344 73.210938 170.5 73.546875 170.152344 Z M 301.40625 121.757812 C 301.054688 121.410156 300.65625 121.140625 300.199219 120.953125 C 299.746094 120.765625 299.273438 120.671875 298.78125 120.671875 C 298.289062 120.671875 297.816406 120.765625 297.363281 120.953125 C 296.90625 121.140625 296.507812 121.410156 296.15625 121.757812 L 274.585938 143.332031 L 253.011719 121.757812 C 252.660156 121.421875 252.257812 121.167969 251.808594 120.988281 C 251.359375 120.8125 250.890625 120.726562 250.40625 120.734375 C 249.921875 120.738281 249.457031 120.835938 249.011719 121.023438 C 248.5625 121.210938 248.167969 121.476562 247.828125 121.820312 C 247.484375 122.160156 247.21875 122.554688 247.03125 123.003906 C 246.84375 123.449219 246.746094 123.914062 246.742188 124.398438 C 246.734375 124.882812 246.820312 125.351562 247 125.800781 C 247.175781 126.25 247.429688 126.652344 247.765625 127.003906 L 269.339844 148.578125 L 247.765625 170.152344 C 247.585938 170.320312 247.421875 170.507812 247.28125 170.710938 C 247.136719 170.914062 247.015625 171.128906 246.917969 171.355469 C 246.816406 171.582031 246.738281 171.816406 246.6875 172.058594 C 246.632812 172.300781 246.605469 172.546875 246.601562 172.796875 C 246.597656 173.042969 246.621094 173.289062 246.667969 173.53125 C 246.710938 173.777344 246.78125 174.015625 246.875 174.242188 C 246.96875 174.472656 247.082031 174.691406 247.21875 174.898438 C 247.355469 175.105469 247.511719 175.296875 247.6875 175.472656 C 247.863281 175.648438 248.054688 175.804688 248.261719 175.941406 C 248.46875 176.078125 248.6875 176.191406 248.917969 176.285156 C 249.148438 176.378906 249.382812 176.449219 249.628906 176.496094 C 249.871094 176.539062 250.117188 176.5625 250.367188 176.558594 C 250.613281 176.554688 250.859375 176.527344 251.101562 176.472656 C 251.34375 176.421875 251.578125 176.34375 251.804688 176.246094 C 252.035156 176.144531 252.25 176.023438 252.449219 175.878906 C 252.652344 175.738281 252.839844 175.574219 253.011719 175.394531 L 274.585938 153.820312 L 296.15625 175.394531 C 296.507812 175.734375 296.910156 175.996094 297.359375 176.175781 C 297.8125 176.359375 298.28125 176.449219 298.769531 176.445312 C 299.257812 176.441406 299.726562 176.34375 300.175781 176.15625 C 300.625 175.96875 301.023438 175.703125 301.367188 175.355469 C 301.710938 175.011719 301.976562 174.617188 302.164062 174.164062 C 302.355469 173.714844 302.449219 173.246094 302.453125 172.761719 C 302.457031 172.273438 302.367188 171.804688 302.1875 171.351562 C 302.003906 170.898438 301.742188 170.5 301.40625 170.148438 L 279.832031 148.578125 L 301.40625 127.003906 C 301.753906 126.65625 302.019531 126.253906 302.207031 125.800781 C 302.398438 125.34375 302.492188 124.871094 302.492188 124.378906 C 302.492188 123.886719 302.398438 123.414062 302.207031 122.960938 C 302.019531 122.507812 301.753906 122.105469 301.40625 121.757812 Z M 95.488281 252.785156 C 95.789062 253.175781 96.152344 253.496094 96.578125 253.738281 C 97.003906 253.984375 97.460938 254.140625 97.949219 254.207031 C 98.433594 254.269531 98.917969 254.238281 99.390625 254.109375 C 99.867188 253.984375 100.300781 253.769531 100.691406 253.472656 C 124.992188 234.824219 155.8125 224.554688 187.476562 224.554688 C 219.136719 224.554688 249.960938 234.824219 274.261719 253.472656 C 274.652344 253.769531 275.085938 253.984375 275.558594 254.113281 C 276.035156 254.238281 276.515625 254.269531 277.003906 254.207031 C 277.492188 254.140625 277.949219 253.988281 278.375 253.738281 C 278.800781 253.492188 279.164062 253.175781 279.464844 252.785156 C 279.765625 252.394531 279.976562 251.960938 280.105469 251.484375 C 280.234375 251.011719 280.265625 250.527344 280.199219 250.042969 C 280.136719 249.554688 279.980469 249.097656 279.734375 248.667969 C 279.488281 248.242188 279.167969 247.878906 278.777344 247.582031 C 253.1875 227.949219 220.761719 217.136719 187.476562 217.136719 C 154.1875 217.136719 121.761719 227.949219 96.171875 247.582031 C 95.78125 247.882812 95.460938 248.246094 95.21875 248.671875 C 94.972656 249.097656 94.816406 249.554688 94.75 250.042969 C 94.6875 250.53125 94.71875 251.011719 94.847656 251.488281 C 94.972656 251.960938 95.1875 252.394531 95.484375 252.785156 Z M 95.488281 252.785156 " fill-opacity="1" fill-rule="nonzero"/></g><g fill="#ffffff" fill-opacity="1"><g transform="translate(182.014329, 168.231341)"><g><path d="M 0.484375 -0.234375 C 0.460938 -0.234375 0.441406 -0.234375 0.421875 -0.234375 C 0.410156 -0.234375 0.394531 -0.234375 0.375 -0.234375 C 0.3125 -0.234375 0.273438 -0.226562 0.265625 -0.21875 C 0.242188 -0.21875 0.226562 -0.21875 0.21875 -0.21875 C 0.21875 -0.21875 0.21875 -0.210938 0.21875 -0.203125 C 0.207031 -0.203125 0.191406 -0.207031 0.171875 -0.21875 C 0.148438 -0.21875 0.128906 -0.222656 0.109375 -0.234375 C 0.0859375 -0.242188 0.0703125 -0.253906 0.0625 -0.265625 C 0.0625 -0.273438 0.0664062 -0.28125 0.078125 -0.28125 C 0.0859375 -0.28125 0.0976562 -0.273438 0.109375 -0.265625 C 0.117188 -0.265625 0.140625 -0.265625 0.171875 -0.265625 C 0.191406 -0.265625 0.207031 -0.265625 0.21875 -0.265625 C 0.269531 -0.265625 0.320312 -0.265625 0.375 -0.265625 C 0.425781 -0.265625 0.476562 -0.265625 0.53125 -0.265625 C 0.632812 -0.265625 0.703125 -0.265625 0.734375 -0.265625 C 0.742188 -0.265625 0.75 -0.265625 0.75 -0.265625 C 0.757812 -0.273438 0.769531 -0.28125 0.78125 -0.28125 C 0.800781 -0.289062 0.816406 -0.296875 0.828125 -0.296875 C 0.847656 -0.296875 0.863281 -0.296875 0.875 -0.296875 C 0.894531 -0.285156 0.910156 -0.28125 0.921875 -0.28125 C 0.929688 -0.269531 0.9375 -0.257812 0.9375 -0.25 C 0.9375 -0.238281 0.929688 -0.234375 0.921875 -0.234375 C 0.921875 -0.234375 0.910156 -0.234375 0.890625 -0.234375 C 0.878906 -0.234375 0.863281 -0.234375 0.84375 -0.234375 C 0.820312 -0.234375 0.800781 -0.234375 0.78125 -0.234375 C 0.769531 -0.234375 0.757812 -0.234375 0.75 -0.234375 C 0.695312 -0.234375 0.648438 -0.234375 0.609375 -0.234375 C 0.585938 -0.234375 0.570312 -0.234375 0.5625 -0.234375 C 0.550781 -0.234375 0.546875 -0.234375 0.546875 -0.234375 C 0.546875 -0.210938 0.546875 -0.195312 0.546875 -0.1875 C 0.546875 -0.175781 0.546875 -0.164062 0.546875 -0.15625 C 0.546875 -0.144531 0.546875 -0.132812 0.546875 -0.125 C 0.546875 -0.125 0.546875 -0.117188 0.546875 -0.109375 C 0.535156 -0.0351562 0.53125 0.015625 0.53125 0.046875 C 0.53125 0.0859375 0.519531 0.113281 0.5 0.125 C 0.488281 0.125 0.484375 0.09375 0.484375 0.03125 Z M 0.65625 -0.671875 C 0.65625 -0.671875 0.65625 -0.675781 0.65625 -0.6875 C 0.632812 -0.695312 0.613281 -0.707031 0.59375 -0.71875 C 0.59375 -0.726562 0.597656 -0.734375 0.609375 -0.734375 C 0.617188 -0.734375 0.625 -0.734375 0.625 -0.734375 C 0.632812 -0.734375 0.644531 -0.734375 0.65625 -0.734375 C 0.65625 -0.734375 0.660156 -0.726562 0.671875 -0.71875 C 0.679688 -0.71875 0.691406 -0.71875 0.703125 -0.71875 C 0.710938 -0.71875 0.722656 -0.710938 0.734375 -0.703125 C 0.734375 -0.691406 0.734375 -0.679688 0.734375 -0.671875 C 0.722656 -0.660156 0.71875 -0.648438 0.71875 -0.640625 C 0.71875 -0.640625 0.71875 -0.632812 0.71875 -0.625 C 0.71875 -0.59375 0.71875 -0.5625 0.71875 -0.53125 C 0.71875 -0.507812 0.71875 -0.484375 0.71875 -0.453125 C 0.71875 -0.429688 0.71875 -0.410156 0.71875 -0.390625 C 0.71875 -0.378906 0.710938 -0.367188 0.703125 -0.359375 C 0.691406 -0.335938 0.679688 -0.328125 0.671875 -0.328125 C 0.660156 -0.328125 0.65625 -0.335938 0.65625 -0.359375 L 0.34375 -0.359375 C 0.34375 -0.359375 0.335938 -0.351562 0.328125 -0.34375 C 0.328125 -0.320312 0.320312 -0.3125 0.3125 -0.3125 C 0.300781 -0.3125 0.289062 -0.328125 0.28125 -0.359375 C 0.28125 -0.367188 0.28125 -0.398438 0.28125 -0.453125 L 0.28125 -0.640625 C 0.28125 -0.648438 0.269531 -0.65625 0.25 -0.65625 C 0.226562 -0.664062 0.210938 -0.671875 0.203125 -0.671875 C 0.203125 -0.679688 0.203125 -0.6875 0.203125 -0.6875 C 0.203125 -0.695312 0.210938 -0.703125 0.234375 -0.703125 C 0.242188 -0.703125 0.253906 -0.703125 0.265625 -0.703125 C 0.285156 -0.703125 0.304688 -0.695312 0.328125 -0.6875 C 0.347656 -0.6875 0.351562 -0.675781 0.34375 -0.65625 C 0.34375 -0.65625 0.34375 -0.648438 0.34375 -0.640625 C 0.34375 -0.640625 0.34375 -0.632812 0.34375 -0.625 L 0.34375 -0.578125 L 0.65625 -0.578125 Z M 0.65625 -0.546875 L 0.34375 -0.546875 L 0.34375 -0.390625 L 0.65625 -0.390625 Z M 0.65625 -0.546875 "/></g></g></g><g fill="#ffffff" fill-opacity="1"><g transform="translate(183.014334, 168.231341)"><g><path d="M 0.765625 0.078125 L 0.765625 -0.65625 C 0.753906 -0.664062 0.734375 -0.679688 0.703125 -0.703125 C 0.679688 -0.710938 0.664062 -0.722656 0.65625 -0.734375 C 0.664062 -0.742188 0.675781 -0.75 0.6875 -0.75 C 0.695312 -0.75 0.707031 -0.75 0.71875 -0.75 C 0.71875 -0.75 0.722656 -0.742188 0.734375 -0.734375 C 0.742188 -0.734375 0.75 -0.734375 0.75 -0.734375 C 0.789062 -0.722656 0.816406 -0.707031 0.828125 -0.6875 C 0.828125 -0.6875 0.828125 -0.675781 0.828125 -0.65625 C 0.828125 -0.65625 0.828125 -0.644531 0.828125 -0.625 C 0.828125 -0.625 0.828125 -0.617188 0.828125 -0.609375 C 0.828125 -0.554688 0.828125 -0.507812 0.828125 -0.46875 C 0.828125 -0.425781 0.828125 -0.390625 0.828125 -0.359375 C 0.828125 -0.328125 0.828125 -0.300781 0.828125 -0.28125 C 0.828125 -0.257812 0.828125 -0.242188 0.828125 -0.234375 C 0.828125 -0.210938 0.828125 -0.195312 0.828125 -0.1875 C 0.828125 -0.175781 0.828125 -0.164062 0.828125 -0.15625 C 0.828125 -0.0390625 0.820312 0.0351562 0.8125 0.078125 C 0.800781 0.117188 0.789062 0.140625 0.78125 0.140625 C 0.769531 0.140625 0.765625 0.117188 0.765625 0.078125 Z M 0.59375 -0.34375 C 0.582031 -0.34375 0.570312 -0.34375 0.5625 -0.34375 C 0.539062 -0.34375 0.523438 -0.335938 0.515625 -0.328125 C 0.492188 -0.328125 0.476562 -0.328125 0.46875 -0.328125 C 0.46875 -0.328125 0.460938 -0.328125 0.453125 -0.328125 C 0.453125 -0.335938 0.445312 -0.34375 0.4375 -0.34375 C 0.425781 -0.351562 0.421875 -0.359375 0.421875 -0.359375 C 0.410156 -0.367188 0.410156 -0.375 0.421875 -0.375 C 0.429688 -0.375 0.441406 -0.375 0.453125 -0.375 C 0.460938 -0.375 0.472656 -0.375 0.484375 -0.375 C 0.492188 -0.375 0.507812 -0.375 0.53125 -0.375 C 0.550781 -0.375 0.566406 -0.375 0.578125 -0.375 C 0.585938 -0.375 0.59375 -0.375 0.59375 -0.375 L 0.59375 -0.59375 C 0.59375 -0.601562 0.582031 -0.617188 0.5625 -0.640625 C 0.539062 -0.640625 0.523438 -0.644531 0.515625 -0.65625 C 0.503906 -0.65625 0.503906 -0.660156 0.515625 -0.671875 C 0.515625 -0.671875 0.523438 -0.671875 0.546875 -0.671875 C 0.554688 -0.671875 0.5625 -0.671875 0.5625 -0.671875 C 0.570312 -0.671875 0.585938 -0.664062 0.609375 -0.65625 C 0.640625 -0.65625 0.65625 -0.644531 0.65625 -0.625 C 0.664062 -0.625 0.671875 -0.613281 0.671875 -0.59375 C 0.671875 -0.59375 0.671875 -0.585938 0.671875 -0.578125 C 0.671875 -0.578125 0.664062 -0.570312 0.65625 -0.5625 C 0.65625 -0.550781 0.65625 -0.546875 0.65625 -0.546875 C 0.65625 -0.472656 0.65625 -0.414062 0.65625 -0.375 C 0.65625 -0.332031 0.65625 -0.296875 0.65625 -0.265625 C 0.65625 -0.242188 0.65625 -0.226562 0.65625 -0.21875 C 0.65625 -0.207031 0.65625 -0.195312 0.65625 -0.1875 C 0.65625 -0.144531 0.65625 -0.109375 0.65625 -0.078125 C 0.65625 -0.0546875 0.65625 -0.0351562 0.65625 -0.015625 C 0.644531 0.0234375 0.632812 0.046875 0.625 0.046875 C 0.601562 0.046875 0.59375 0.0234375 0.59375 -0.015625 Z M 0.484375 -0.53125 C 0.484375 -0.53125 0.484375 -0.523438 0.484375 -0.515625 C 0.484375 -0.515625 0.476562 -0.507812 0.46875 -0.5 C 0.457031 -0.488281 0.445312 -0.472656 0.4375 -0.453125 C 0.425781 -0.429688 0.414062 -0.414062 0.40625 -0.40625 C 0.40625 -0.382812 0.390625 -0.363281 0.359375 -0.34375 C 0.359375 -0.332031 0.367188 -0.316406 0.390625 -0.296875 C 0.410156 -0.273438 0.425781 -0.257812 0.4375 -0.25 C 0.445312 -0.238281 0.457031 -0.226562 0.46875 -0.21875 C 0.476562 -0.207031 0.488281 -0.191406 0.5 -0.171875 C 0.5 -0.140625 0.492188 -0.125 0.484375 -0.125 C 0.472656 -0.113281 0.460938 -0.117188 0.453125 -0.140625 C 0.453125 -0.140625 0.445312 -0.144531 0.4375 -0.15625 C 0.425781 -0.175781 0.410156 -0.203125 0.390625 -0.234375 C 0.378906 -0.242188 0.367188 -0.253906 0.359375 -0.265625 C 0.359375 -0.285156 0.351562 -0.300781 0.34375 -0.3125 C 0.3125 -0.269531 0.269531 -0.234375 0.21875 -0.203125 C 0.175781 -0.160156 0.132812 -0.128906 0.09375 -0.109375 C 0.0703125 -0.0976562 0.0625 -0.09375 0.0625 -0.09375 C 0.0507812 -0.09375 0.0507812 -0.0976562 0.0625 -0.109375 C 0.164062 -0.179688 0.253906 -0.269531 0.328125 -0.375 C 0.359375 -0.425781 0.382812 -0.472656 0.40625 -0.515625 C 0.394531 -0.515625 0.382812 -0.515625 0.375 -0.515625 C 0.375 -0.515625 0.363281 -0.507812 0.34375 -0.5 C 0.332031 -0.5 0.320312 -0.5 0.3125 -0.5 C 0.300781 -0.5 0.289062 -0.5 0.28125 -0.5 C 0.28125 -0.5 0.265625 -0.492188 0.234375 -0.484375 C 0.222656 -0.484375 0.210938 -0.484375 0.203125 -0.484375 C 0.191406 -0.492188 0.175781 -0.5 0.15625 -0.5 C 0.132812 -0.507812 0.125 -0.519531 0.125 -0.53125 C 0.125 -0.539062 0.128906 -0.546875 0.140625 -0.546875 C 0.140625 -0.535156 0.140625 -0.53125 0.140625 -0.53125 C 0.148438 -0.53125 0.160156 -0.53125 0.171875 -0.53125 C 0.179688 -0.53125 0.195312 -0.53125 0.21875 -0.53125 C 0.238281 -0.53125 0.257812 -0.53125 0.28125 -0.53125 C 0.289062 -0.53125 0.300781 -0.53125 0.3125 -0.53125 C 0.320312 -0.53125 0.328125 -0.53125 0.328125 -0.53125 C 0.328125 -0.53125 0.34375 -0.53125 0.375 -0.53125 C 0.375 -0.539062 0.375 -0.546875 0.375 -0.546875 C 0.382812 -0.546875 0.394531 -0.546875 0.40625 -0.546875 C 0.414062 -0.546875 0.425781 -0.546875 0.4375 -0.546875 C 0.457031 -0.546875 0.46875 -0.546875 0.46875 -0.546875 C 0.476562 -0.546875 0.484375 -0.539062 0.484375 -0.53125 Z M 0.484375 -0.53125 "/></g></g></g><g fill="#ffffff" fill-opacity="1"><g transform="translate(184.01434, 168.231341)"><g><path d="M 0.421875 -0.140625 C 0.429688 -0.140625 0.445312 -0.140625 0.46875 -0.140625 C 0.488281 -0.140625 0.507812 -0.140625 0.53125 -0.140625 C 0.5625 -0.140625 0.585938 -0.140625 0.609375 -0.140625 C 0.628906 -0.140625 0.644531 -0.140625 0.65625 -0.140625 C 0.664062 -0.148438 0.679688 -0.15625 0.703125 -0.15625 C 0.722656 -0.15625 0.734375 -0.148438 0.734375 -0.140625 C 0.742188 -0.140625 0.75 -0.132812 0.75 -0.125 C 0.738281 -0.113281 0.734375 -0.109375 0.734375 -0.109375 C 0.734375 -0.109375 0.734375 -0.101562 0.734375 -0.09375 C 0.734375 -0.0703125 0.734375 -0.0546875 0.734375 -0.046875 C 0.734375 -0.0351562 0.734375 -0.0234375 0.734375 -0.015625 C 0.734375 0.00390625 0.734375 0.0195312 0.734375 0.03125 C 0.734375 0.0507812 0.726562 0.0664062 0.71875 0.078125 C 0.707031 0.128906 0.695312 0.148438 0.6875 0.140625 C 0.675781 0.140625 0.671875 0.125 0.671875 0.09375 L 0.671875 -0.109375 C 0.628906 -0.109375 0.597656 -0.109375 0.578125 -0.109375 C 0.554688 -0.109375 0.539062 -0.109375 0.53125 -0.109375 C 0.519531 -0.109375 0.507812 -0.109375 0.5 -0.109375 C 0.488281 -0.109375 0.476562 -0.109375 0.46875 -0.109375 C 0.46875 -0.109375 0.460938 -0.109375 0.453125 -0.109375 C 0.441406 -0.109375 0.425781 -0.109375 0.40625 -0.109375 C 0.382812 -0.109375 0.367188 -0.101562 0.359375 -0.09375 C 0.347656 -0.09375 0.34375 -0.09375 0.34375 -0.09375 C 0.320312 -0.09375 0.3125 -0.09375 0.3125 -0.09375 C 0.300781 -0.09375 0.285156 -0.09375 0.265625 -0.09375 C 0.253906 -0.101562 0.242188 -0.109375 0.234375 -0.109375 C 0.210938 -0.117188 0.203125 -0.128906 0.203125 -0.140625 C 0.203125 -0.148438 0.207031 -0.148438 0.21875 -0.140625 C 0.226562 -0.140625 0.242188 -0.140625 0.265625 -0.140625 C 0.285156 -0.140625 0.300781 -0.140625 0.3125 -0.140625 C 0.320312 -0.140625 0.332031 -0.140625 0.34375 -0.140625 Z M 0.546875 -0.421875 C 0.535156 -0.410156 0.53125 -0.394531 0.53125 -0.375 C 0.53125 -0.363281 0.53125 -0.351562 0.53125 -0.34375 C 0.53125 -0.332031 0.53125 -0.320312 0.53125 -0.3125 C 0.53125 -0.300781 0.53125 -0.296875 0.53125 -0.296875 C 0.539062 -0.296875 0.554688 -0.296875 0.578125 -0.296875 C 0.585938 -0.296875 0.601562 -0.296875 0.625 -0.296875 C 0.65625 -0.296875 0.679688 -0.296875 0.703125 -0.296875 C 0.722656 -0.296875 0.734375 -0.296875 0.734375 -0.296875 C 0.742188 -0.296875 0.753906 -0.296875 0.765625 -0.296875 C 0.773438 -0.304688 0.785156 -0.3125 0.796875 -0.3125 C 0.804688 -0.320312 0.816406 -0.328125 0.828125 -0.328125 C 0.847656 -0.328125 0.863281 -0.328125 0.875 -0.328125 C 0.894531 -0.316406 0.910156 -0.3125 0.921875 -0.3125 C 0.929688 -0.300781 0.9375 -0.289062 0.9375 -0.28125 C 0.9375 -0.269531 0.929688 -0.265625 0.921875 -0.265625 C 0.921875 -0.265625 0.910156 -0.265625 0.890625 -0.265625 C 0.878906 -0.265625 0.863281 -0.265625 0.84375 -0.265625 C 0.820312 -0.265625 0.800781 -0.265625 0.78125 -0.265625 C 0.769531 -0.265625 0.757812 -0.265625 0.75 -0.265625 C 0.644531 -0.265625 0.535156 -0.265625 0.421875 -0.265625 C 0.316406 -0.253906 0.257812 -0.25 0.25 -0.25 C 0.238281 -0.25 0.222656 -0.242188 0.203125 -0.234375 C 0.191406 -0.234375 0.179688 -0.234375 0.171875 -0.234375 C 0.160156 -0.234375 0.140625 -0.242188 0.109375 -0.265625 C 0.0859375 -0.273438 0.0703125 -0.28125 0.0625 -0.28125 C 0.0625 -0.289062 0.0664062 -0.296875 0.078125 -0.296875 C 0.0859375 -0.296875 0.0976562 -0.296875 0.109375 -0.296875 C 0.128906 -0.296875 0.144531 -0.296875 0.15625 -0.296875 C 0.175781 -0.296875 0.195312 -0.296875 0.21875 -0.296875 L 0.484375 -0.296875 L 0.484375 -0.421875 L 0.34375 -0.421875 C 0.34375 -0.398438 0.335938 -0.390625 0.328125 -0.390625 C 0.316406 -0.378906 0.3125 -0.375 0.3125 -0.375 C 0.300781 -0.375 0.296875 -0.378906 0.296875 -0.390625 C 0.296875 -0.398438 0.296875 -0.40625 0.296875 -0.40625 C 0.296875 -0.414062 0.289062 -0.425781 0.28125 -0.4375 C 0.28125 -0.5 0.28125 -0.550781 0.28125 -0.59375 C 0.28125 -0.601562 0.28125 -0.609375 0.28125 -0.609375 C 0.28125 -0.617188 0.28125 -0.628906 0.28125 -0.640625 C 0.269531 -0.640625 0.265625 -0.644531 0.265625 -0.65625 C 0.242188 -0.65625 0.226562 -0.660156 0.21875 -0.671875 C 0.207031 -0.671875 0.203125 -0.671875 0.203125 -0.671875 C 0.210938 -0.679688 0.222656 -0.6875 0.234375 -0.6875 C 0.253906 -0.6875 0.273438 -0.6875 0.296875 -0.6875 C 0.328125 -0.675781 0.34375 -0.671875 0.34375 -0.671875 C 0.363281 -0.671875 0.390625 -0.671875 0.421875 -0.671875 C 0.441406 -0.671875 0.46875 -0.671875 0.5 -0.671875 C 0.539062 -0.671875 0.570312 -0.671875 0.59375 -0.671875 C 0.625 -0.679688 0.644531 -0.6875 0.65625 -0.6875 C 0.65625 -0.6875 0.660156 -0.6875 0.671875 -0.6875 C 0.679688 -0.6875 0.703125 -0.6875 0.734375 -0.6875 C 0.742188 -0.6875 0.75 -0.679688 0.75 -0.671875 C 0.75 -0.660156 0.742188 -0.648438 0.734375 -0.640625 C 0.734375 -0.628906 0.726562 -0.597656 0.71875 -0.546875 C 0.707031 -0.535156 0.703125 -0.519531 0.703125 -0.5 C 0.703125 -0.488281 0.695312 -0.476562 0.6875 -0.46875 C 0.695312 -0.46875 0.703125 -0.46875 0.703125 -0.46875 L 0.71875 -0.453125 C 0.726562 -0.441406 0.734375 -0.4375 0.734375 -0.4375 C 0.722656 -0.425781 0.710938 -0.421875 0.703125 -0.421875 Z M 0.671875 -0.65625 L 0.34375 -0.640625 L 0.34375 -0.453125 L 0.65625 -0.453125 Z M 0.671875 -0.65625 "/></g></g></g><g fill="#ffffff" fill-opacity="1"><g transform="translate(185.014345, 168.231341)"><g/></g></g><g fill="#ffffff" fill-opacity="1"><g transform="translate(185.499347, 168.231341)"><g><path d="M 0.484375 -0.25 C 0.453125 -0.238281 0.414062 -0.234375 0.375 -0.234375 C 0.34375 -0.234375 0.316406 -0.234375 0.296875 -0.234375 C 0.273438 -0.234375 0.265625 -0.234375 0.265625 -0.234375 C 0.234375 -0.222656 0.210938 -0.210938 0.203125 -0.203125 C 0.203125 -0.203125 0.191406 -0.207031 0.171875 -0.21875 C 0.160156 -0.21875 0.148438 -0.21875 0.140625 -0.21875 C 0.128906 -0.226562 0.117188 -0.234375 0.109375 -0.234375 C 0.078125 -0.242188 0.0625 -0.253906 0.0625 -0.265625 C 0.0625 -0.273438 0.0664062 -0.28125 0.078125 -0.28125 C 0.0664062 -0.28125 0.0625 -0.28125 0.0625 -0.28125 C 0.0703125 -0.28125 0.0820312 -0.28125 0.09375 -0.28125 C 0.113281 -0.269531 0.132812 -0.265625 0.15625 -0.265625 C 0.164062 -0.265625 0.171875 -0.265625 0.171875 -0.265625 C 0.179688 -0.265625 0.191406 -0.265625 0.203125 -0.265625 C 0.253906 -0.265625 0.304688 -0.265625 0.359375 -0.265625 C 0.410156 -0.273438 0.46875 -0.28125 0.53125 -0.28125 C 0.582031 -0.28125 0.625 -0.28125 0.65625 -0.28125 C 0.695312 -0.28125 0.722656 -0.28125 0.734375 -0.28125 C 0.753906 -0.289062 0.773438 -0.296875 0.796875 -0.296875 C 0.816406 -0.304688 0.832031 -0.3125 0.84375 -0.3125 C 0.851562 -0.3125 0.867188 -0.304688 0.890625 -0.296875 C 0.910156 -0.296875 0.925781 -0.289062 0.9375 -0.28125 C 0.945312 -0.28125 0.953125 -0.273438 0.953125 -0.265625 C 0.941406 -0.242188 0.929688 -0.238281 0.921875 -0.25 C 0.921875 -0.25 0.914062 -0.25 0.90625 -0.25 C 0.894531 -0.25 0.875 -0.25 0.84375 -0.25 C 0.820312 -0.25 0.800781 -0.25 0.78125 -0.25 C 0.757812 -0.25 0.742188 -0.25 0.734375 -0.25 C 0.710938 -0.25 0.691406 -0.25 0.671875 -0.25 C 0.648438 -0.25 0.625 -0.25 0.59375 -0.25 C 0.570312 -0.25 0.554688 -0.25 0.546875 -0.25 C 0.546875 -0.1875 0.546875 -0.132812 0.546875 -0.09375 C 0.546875 -0.0625 0.539062 -0.0351562 0.53125 -0.015625 C 0.53125 0.00390625 0.53125 0.0195312 0.53125 0.03125 C 0.53125 0.0507812 0.53125 0.0625 0.53125 0.0625 C 0.53125 0.113281 0.519531 0.140625 0.5 0.140625 C 0.488281 0.148438 0.484375 0.128906 0.484375 0.078125 Z M 0.734375 -0.59375 C 0.734375 -0.59375 0.726562 -0.585938 0.71875 -0.578125 C 0.707031 -0.578125 0.703125 -0.570312 0.703125 -0.5625 C 0.679688 -0.550781 0.660156 -0.539062 0.640625 -0.53125 C 0.628906 -0.519531 0.617188 -0.507812 0.609375 -0.5 C 0.585938 -0.488281 0.570312 -0.476562 0.5625 -0.46875 C 0.550781 -0.46875 0.539062 -0.46875 0.53125 -0.46875 C 0.53125 -0.46875 0.535156 -0.460938 0.546875 -0.453125 C 0.554688 -0.453125 0.570312 -0.453125 0.59375 -0.453125 C 0.613281 -0.441406 0.628906 -0.4375 0.640625 -0.4375 C 0.660156 -0.4375 0.675781 -0.4375 0.6875 -0.4375 C 0.707031 -0.4375 0.722656 -0.4375 0.734375 -0.4375 C 0.742188 -0.4375 0.75 -0.4375 0.75 -0.4375 C 0.757812 -0.4375 0.769531 -0.429688 0.78125 -0.421875 C 0.800781 -0.421875 0.820312 -0.414062 0.84375 -0.40625 C 0.851562 -0.394531 0.859375 -0.382812 0.859375 -0.375 C 0.859375 -0.363281 0.851562 -0.351562 0.84375 -0.34375 C 0.832031 -0.34375 0.8125 -0.347656 0.78125 -0.359375 C 0.75 -0.367188 0.707031 -0.382812 0.65625 -0.40625 C 0.644531 -0.40625 0.632812 -0.40625 0.625 -0.40625 C 0.613281 -0.414062 0.597656 -0.421875 0.578125 -0.421875 C 0.566406 -0.421875 0.550781 -0.421875 0.53125 -0.421875 C 0.519531 -0.429688 0.507812 -0.4375 0.5 -0.4375 C 0.476562 -0.4375 0.457031 -0.429688 0.4375 -0.421875 C 0.414062 -0.410156 0.394531 -0.40625 0.375 -0.40625 C 0.289062 -0.375 0.210938 -0.351562 0.140625 -0.34375 C 0.117188 -0.332031 0.109375 -0.332031 0.109375 -0.34375 C 0.109375 -0.34375 0.113281 -0.347656 0.125 -0.359375 C 0.269531 -0.398438 0.394531 -0.445312 0.5 -0.5 C 0.550781 -0.53125 0.585938 -0.554688 0.609375 -0.578125 C 0.597656 -0.578125 0.554688 -0.578125 0.484375 -0.578125 C 0.398438 -0.566406 0.351562 -0.5625 0.34375 -0.5625 C 0.34375 -0.5625 0.332031 -0.554688 0.3125 -0.546875 C 0.300781 -0.546875 0.289062 -0.546875 0.28125 -0.546875 C 0.25 -0.554688 0.226562 -0.566406 0.21875 -0.578125 C 0.195312 -0.585938 0.1875 -0.59375 0.1875 -0.59375 C 0.175781 -0.601562 0.175781 -0.609375 0.1875 -0.609375 C 0.195312 -0.609375 0.207031 -0.609375 0.21875 -0.609375 C 0.238281 -0.609375 0.253906 -0.609375 0.265625 -0.609375 C 0.285156 -0.609375 0.304688 -0.609375 0.328125 -0.609375 C 0.335938 -0.609375 0.351562 -0.609375 0.375 -0.609375 C 0.40625 -0.609375 0.4375 -0.609375 0.46875 -0.609375 C 0.488281 -0.609375 0.507812 -0.609375 0.53125 -0.609375 C 0.550781 -0.609375 0.570312 -0.609375 0.59375 -0.609375 C 0.59375 -0.609375 0.601562 -0.609375 0.625 -0.609375 C 0.632812 -0.609375 0.640625 -0.609375 0.640625 -0.609375 C 0.648438 -0.609375 0.65625 -0.609375 0.65625 -0.609375 C 0.6875 -0.609375 0.707031 -0.609375 0.71875 -0.609375 C 0.726562 -0.609375 0.734375 -0.601562 0.734375 -0.59375 Z M 0.609375 -0.6875 C 0.597656 -0.675781 0.582031 -0.671875 0.5625 -0.671875 C 0.550781 -0.671875 0.539062 -0.671875 0.53125 -0.671875 C 0.488281 -0.671875 0.457031 -0.675781 0.4375 -0.6875 C 0.425781 -0.6875 0.410156 -0.691406 0.390625 -0.703125 C 0.367188 -0.710938 0.359375 -0.722656 0.359375 -0.734375 C 0.359375 -0.742188 0.363281 -0.742188 0.375 -0.734375 C 0.382812 -0.734375 0.398438 -0.734375 0.421875 -0.734375 C 0.429688 -0.734375 0.441406 -0.734375 0.453125 -0.734375 C 0.472656 -0.734375 0.492188 -0.734375 0.515625 -0.734375 C 0.523438 -0.722656 0.535156 -0.71875 0.546875 -0.71875 C 0.566406 -0.71875 0.582031 -0.71875 0.59375 -0.71875 C 0.601562 -0.71875 0.609375 -0.710938 0.609375 -0.703125 C 0.617188 -0.691406 0.617188 -0.6875 0.609375 -0.6875 Z M 0.609375 -0.6875 "/></g></g></g><g fill="#ffffff" fill-opacity="1"><g transform="translate(186.499352, 168.231341)"><g><path d="M 0.71875 0.0625 L 0.71875 -0.65625 C 0.71875 -0.664062 0.703125 -0.675781 0.671875 -0.6875 C 0.648438 -0.707031 0.632812 -0.71875 0.625 -0.71875 C 0.613281 -0.71875 0.613281 -0.722656 0.625 -0.734375 C 0.625 -0.734375 0.628906 -0.734375 0.640625 -0.734375 C 0.648438 -0.734375 0.65625 -0.734375 0.65625 -0.734375 C 0.675781 -0.734375 0.691406 -0.726562 0.703125 -0.71875 C 0.742188 -0.707031 0.769531 -0.695312 0.78125 -0.6875 C 0.78125 -0.6875 0.78125 -0.675781 0.78125 -0.65625 C 0.78125 -0.644531 0.78125 -0.632812 0.78125 -0.625 C 0.78125 -0.613281 0.78125 -0.609375 0.78125 -0.609375 L 0.78125 -0.328125 C 0.789062 -0.328125 0.796875 -0.332031 0.796875 -0.34375 L 0.8125 -0.34375 C 0.8125 -0.34375 0.820312 -0.34375 0.84375 -0.34375 C 0.863281 -0.351562 0.882812 -0.359375 0.90625 -0.359375 C 0.925781 -0.359375 0.941406 -0.359375 0.953125 -0.359375 C 0.960938 -0.347656 0.96875 -0.34375 0.96875 -0.34375 C 0.976562 -0.332031 0.976562 -0.320312 0.96875 -0.3125 C 0.957031 -0.3125 0.953125 -0.3125 0.953125 -0.3125 L 0.78125 -0.3125 L 0.78125 -0.265625 C 0.78125 -0.242188 0.78125 -0.21875 0.78125 -0.1875 C 0.78125 -0.164062 0.78125 -0.140625 0.78125 -0.109375 C 0.78125 -0.00390625 0.773438 0.0625 0.765625 0.09375 C 0.753906 0.125 0.742188 0.132812 0.734375 0.125 C 0.722656 0.125 0.71875 0.101562 0.71875 0.0625 Z M 0.109375 -0.046875 C 0.222656 -0.140625 0.316406 -0.25 0.390625 -0.375 C 0.421875 -0.4375 0.445312 -0.488281 0.46875 -0.53125 C 0.457031 -0.53125 0.441406 -0.53125 0.421875 -0.53125 C 0.410156 -0.53125 0.398438 -0.53125 0.390625 -0.53125 C 0.359375 -0.53125 0.332031 -0.523438 0.3125 -0.515625 C 0.289062 -0.515625 0.273438 -0.515625 0.265625 -0.515625 C 0.265625 -0.515625 0.257812 -0.515625 0.25 -0.515625 C 0.25 -0.515625 0.242188 -0.515625 0.234375 -0.515625 C 0.234375 -0.503906 0.222656 -0.503906 0.203125 -0.515625 C 0.191406 -0.515625 0.179688 -0.515625 0.171875 -0.515625 C 0.140625 -0.523438 0.125 -0.535156 0.125 -0.546875 C 0.125 -0.554688 0.128906 -0.5625 0.140625 -0.5625 C 0.148438 -0.5625 0.15625 -0.5625 0.15625 -0.5625 C 0.164062 -0.5625 0.175781 -0.5625 0.1875 -0.5625 C 0.195312 -0.5625 0.207031 -0.5625 0.21875 -0.5625 C 0.226562 -0.550781 0.238281 -0.546875 0.25 -0.546875 C 0.257812 -0.546875 0.269531 -0.546875 0.28125 -0.546875 C 0.289062 -0.546875 0.300781 -0.546875 0.3125 -0.546875 C 0.332031 -0.554688 0.347656 -0.5625 0.359375 -0.5625 C 0.390625 -0.5625 0.410156 -0.5625 0.421875 -0.5625 C 0.429688 -0.5625 0.4375 -0.5625 0.4375 -0.5625 C 0.4375 -0.5625 0.445312 -0.5625 0.46875 -0.5625 C 0.476562 -0.5625 0.484375 -0.5625 0.484375 -0.5625 C 0.515625 -0.5625 0.535156 -0.5625 0.546875 -0.5625 C 0.546875 -0.5625 0.546875 -0.554688 0.546875 -0.546875 C 0.546875 -0.546875 0.546875 -0.539062 0.546875 -0.53125 C 0.546875 -0.53125 0.539062 -0.53125 0.53125 -0.53125 C 0.425781 -0.34375 0.394531 -0.28125 0.4375 -0.34375 C 0.351562 -0.226562 0.25 -0.125 0.125 -0.03125 C 0.101562 -0.03125 0.09375 -0.03125 0.09375 -0.03125 C 0.09375 -0.03125 0.0976562 -0.0351562 0.109375 -0.046875 Z M 0.109375 -0.046875 "/></g></g></g></svg>